<svg width="300" height="300" viewBox="0 0 300 300" fill="none" xmlns="http://www.w3.org/2000/svg">
<path fill-rule="evenodd" clip-rule="evenodd" d="M270.156 64.3426C264.654 64.8239 260.584 69.6742 261.065 75.1761L273.268 214.649C267.353 213.399 260.66 213.26 253.747 214.479C233.452 218.058 218.944 231.982 221.341 245.579C223.739 259.176 242.134 267.298 262.429 263.72C282.262 260.223 296.569 246.845 294.972 233.548C294.968 233.308 294.956 233.067 294.934 232.824L280.989 73.4329C280.508 67.9311 275.658 63.8612 270.156 64.3426ZM261.197 255.037C274.687 252.659 284.33 243.403 282.737 234.365C281.143 225.327 268.915 219.928 255.426 222.307C241.936 224.686 232.292 233.941 233.886 242.979C235.479 252.017 247.707 257.416 261.197 255.037Z" fill="#A7517A"/>
<path fill-rule="evenodd" clip-rule="evenodd" d="M79.0229 64.392C73.5211 64.8733 69.4512 69.7237 69.9325 75.2255L84.1404 237.623C78.2566 236.397 71.6102 236.269 64.7465 237.479C44.452 241.058 29.9436 254.982 32.3412 268.579C34.7387 282.176 53.1344 290.298 73.4289 286.72C90.0598 283.787 102.805 273.908 105.545 262.953C105.974 261.733 106.171 260.41 106.087 259.043C106.118 257.904 106.035 256.761 105.834 255.62C105.809 255.479 105.783 255.339 105.755 255.199L89.8564 73.4824C89.3751 67.9805 84.5247 63.9106 79.0229 64.392ZM72.1967 278.037C85.6866 275.659 95.3303 266.403 93.7366 257.365C92.143 248.327 79.9154 242.928 66.4255 245.307C52.9357 247.686 43.2919 256.941 44.8856 265.979C46.4793 275.017 58.7069 280.416 72.1967 278.037Z" fill="#A7517A"/>
<path fill-rule="evenodd" clip-rule="evenodd" d="M71.2144 91.1373C71.6957 96.6391 76.5461 100.709 82.0479 100.228L271.817 83.625C277.319 83.1437 281.389 78.2933 280.908 72.7915L278.293 42.9057C277.812 37.4038 272.961 33.3339 267.46 33.8153L77.6901 50.4179C72.1882 50.8993 68.1183 55.7496 68.5997 61.2514L71.2144 91.1373ZM123.279 73.669C123.76 79.1708 128.61 83.2407 134.112 82.7594L217.66 75.4499C223.162 74.9685 227.232 70.1182 226.75 64.6164L226.343 59.962C225.862 54.4602 221.012 50.3903 215.51 50.8716L131.962 58.1811C126.46 58.6624 122.39 63.5128 122.871 69.0146L123.279 73.669Z" fill="#A7517A"/>
</svg>
