<svg width="300" height="300" viewBox="0 0 300 300" fill="none" xmlns="http://www.w3.org/2000/svg">
<g clip-path="url(#clip0_678_1267)">
<path fill-rule="evenodd" clip-rule="evenodd" d="M150 300C232.843 300 300 232.843 300 150C300 67.1573 232.843 0 150 0C67.1573 0 0 67.1573 0 150C0 232.843 67.1573 300 150 300ZM175 91.6781L202.083 118.761C205.988 122.666 212.319 122.666 216.225 118.761L228.471 106.514C232.376 102.609 232.376 96.2774 228.471 92.3722L158.17 22.0711C156.007 19.9077 153.099 18.9428 150.271 19.1762C147.444 18.9428 144.536 19.9077 142.372 22.0711L72.0711 92.3722C68.1658 96.2774 68.1658 102.609 72.0711 106.514L84.3158 118.759C88.2211 122.664 94.5527 122.664 98.4579 118.759L131 86.217V275C131 280.523 135.477 285 141 285H165C170.523 285 175 280.523 175 275V91.6781Z" fill="#A7517A"/>
<path fill-rule="evenodd" clip-rule="evenodd" d="M150 300C232.843 300 300 232.843 300 150C300 67.1573 232.843 0 150 0C67.1573 0 0 67.1573 0 150C0 232.843 67.1573 300 150 300ZM150 284C224.006 284 284 224.006 284 150C284 75.9938 224.006 16 150 16C75.9938 16 16 75.9938 16 150C16 224.006 75.9938 284 150 284Z" fill="#A7517A"/>
</g>
<defs>
<clipPath id="clip0_678_1267">
<rect width="300" height="300" fill="white"/>
</clipPath>
</defs>
</svg>
