<svg width="300" height="300" viewBox="0 0 300 300" fill="none" xmlns="http://www.w3.org/2000/svg">
<path d="M61.9198 134.52C64.4169 129.594 70.4345 127.625 75.3607 130.122L84.2802 134.643C89.2063 137.14 91.1755 143.158 88.6784 148.084L36.2799 251.454C33.7829 256.381 27.7652 258.35 22.8391 255.853L13.9196 251.331C8.99345 248.834 7.0243 242.817 9.52135 237.891L61.9198 134.52Z" fill="#A7517A"/>
<path d="M228.891 42.9471C234.169 41.3195 239.767 44.2783 241.394 49.5559L242.867 54.3323C244.495 59.6099 241.536 65.2077 236.258 66.8353L178.923 84.5178C173.646 86.1454 168.048 83.1865 166.42 77.909L164.947 73.1325C163.32 67.855 166.278 62.2572 171.556 60.6296L228.891 42.9471Z" fill="#A7517A"/>
<path d="M241.33 49.5566C239.704 44.2786 234.107 41.3185 228.829 42.9449L224.05 44.4173C218.773 46.0437 215.812 51.6408 217.439 56.9187L235.108 114.258C236.734 119.536 242.331 122.496 247.609 120.87L252.387 119.397C257.665 117.771 260.626 112.174 258.999 106.896L241.33 49.5566Z" fill="#A7517A"/>
<path d="M166.242 174.949C171.661 177.696 173.827 184.316 171.08 189.734L167.463 196.87C164.716 202.289 158.097 204.455 152.678 201.708L63.2888 156.397C57.8701 153.65 55.704 147.03 58.4508 141.612L62.0678 134.476C64.8146 129.057 71.434 126.891 76.8527 129.638L166.242 174.949Z" fill="#A7517A"/>
<path d="M209.504 59.1854C211.81 54.1669 217.748 51.9679 222.766 54.2738L231.853 58.4489C236.871 60.7548 239.07 66.6923 236.765 71.7107L176.918 201.96C174.613 206.978 168.675 209.177 163.657 206.871L154.57 202.696C149.551 200.39 147.352 194.453 149.658 189.434L209.504 59.1854Z" fill="#A7517A"/>
</svg>
