<svg width="300" height="300" viewBox="0 0 300 300" fill="none" xmlns="http://www.w3.org/2000/svg">
<path d="M116.066 227.853C119.971 231.758 119.971 238.09 116.066 241.995L108.995 249.066C105.09 252.971 98.7581 252.971 94.8528 249.066L2.92893 157.142C-0.976311 153.237 -0.97631 146.905 2.92893 143L10 135.929C13.9052 132.024 20.2369 132.024 24.1421 135.929L116.066 227.853Z" fill="#A7517A"/>
<path d="M24.1422 164.066C20.2369 167.971 13.9053 167.971 10.0001 164.066L2.92898 156.995C-0.976259 153.09 -0.976259 146.758 2.92898 142.853L94.8529 50.9289C98.7581 47.0237 105.09 47.0237 108.995 50.9289L116.066 58C119.971 61.9052 119.971 68.2369 116.066 72.1421L24.1422 164.066Z" fill="#A7517A"/>
<path d="M183.929 227.853C180.024 231.758 180.024 238.09 183.929 241.995L191 249.066C194.905 252.971 201.237 252.971 205.142 249.066L297.066 157.142C300.971 153.237 300.971 146.905 297.066 143L289.995 135.929C286.09 132.024 279.758 132.024 275.853 135.929L183.929 227.853Z" fill="#A7517A"/>
<path d="M275.853 164.066C279.758 167.971 286.09 167.971 289.995 164.066L297.066 156.995C300.971 153.09 300.971 146.758 297.066 142.853L205.142 50.9289C201.237 47.0237 194.905 47.0237 191 50.9289L183.929 58C180.024 61.9052 180.024 68.2369 183.929 72.1421L275.853 164.066Z" fill="#A7517A"/>
</svg>
