<svg width="300" height="300" viewBox="0 0 300 300" fill="none" xmlns="http://www.w3.org/2000/svg">
<g clip-path="url(#clip0_678_1115)">
<path fill-rule="evenodd" clip-rule="evenodd" d="M128.954 35C128.954 29.4771 133.431 25 138.954 25H171.084C176.607 25 181.084 29.4772 181.084 35V260.561C181.084 266.084 176.607 270.561 171.084 270.561H138.954C133.431 270.561 128.954 266.084 128.954 260.561V35ZM139.929 254.099C137.656 254.099 135.813 252.256 135.813 249.983C135.813 247.71 137.656 245.868 139.929 245.868H170.109C172.382 245.868 174.225 247.71 174.225 249.983C174.225 252.256 172.382 254.099 170.109 254.099H139.929ZM135.813 45.5777C135.813 47.8507 137.656 49.6933 139.929 49.6933H170.109C172.382 49.6933 174.225 47.8507 174.225 45.5777C174.225 43.3048 172.382 41.4622 170.109 41.4622H139.929C137.656 41.4622 135.813 43.3048 135.813 45.5777Z" fill="#A7517A"/>
<path fill-rule="evenodd" clip-rule="evenodd" d="M10 44.2059C4.47715 44.2059 0 48.683 0 54.2059V260.561C0 266.084 4.47714 270.561 9.99999 270.561H39.3865C44.9094 270.561 49.3865 266.084 49.3865 260.561V54.2059C49.3865 48.683 44.9094 44.2059 39.3866 44.2059H10ZM32.9244 60.668C30.6514 60.668 28.8088 62.5106 28.8088 64.7836V94.9642C28.8088 97.2372 30.6514 99.0798 32.9244 99.0798C35.1973 99.0798 37.0399 97.2372 37.0399 94.9642V64.7836C37.0399 62.5106 35.1973 60.668 32.9244 60.668ZM12.3466 64.7836C12.3466 62.5106 14.1892 60.668 16.4622 60.668C18.7351 60.668 20.5777 62.5106 20.5777 64.7836V94.9642C20.5777 97.2372 18.7351 99.0798 16.4622 99.0798C14.1892 99.0798 12.3466 97.2372 12.3466 94.9642V64.7836ZM5.48738 249.983C5.48738 252.256 7.32997 254.099 9.60293 254.099H39.7836C42.0565 254.099 43.8991 252.256 43.8991 249.983C43.8991 247.71 42.0565 245.868 39.7836 245.868H9.60293C7.32997 245.868 5.48738 247.71 5.48738 249.983Z" fill="#A7517A"/>
<path fill-rule="evenodd" clip-rule="evenodd" d="M191.417 69.763C189.833 64.4722 192.838 58.8991 198.129 57.3152L228.232 48.3034C233.523 46.7195 239.096 49.7246 240.68 55.0155L299.967 253.06C301.551 258.351 298.546 263.924 293.255 265.508L263.152 274.52C257.861 276.104 252.288 273.099 250.704 267.808L191.417 69.763ZM206.594 83.8788C204.416 84.5308 202.123 83.2942 201.47 81.1168C200.818 78.9394 202.055 76.6456 204.232 75.9936L233.145 67.336C235.322 66.684 237.616 67.9206 238.268 70.098C238.92 72.2755 237.683 74.5692 235.506 75.2212L206.594 83.8788ZM263.012 247.5C264.316 251.855 268.904 254.328 273.259 253.024C277.614 251.72 280.087 247.133 278.783 242.778C277.479 238.423 272.891 235.95 268.536 237.254C264.182 238.558 261.708 243.145 263.012 247.5Z" fill="#A7517A"/>
<path fill-rule="evenodd" clip-rule="evenodd" d="M74.4769 78.5021C68.954 78.5021 64.4769 82.9792 64.4769 88.5021V260.561C64.4769 266.084 68.954 270.561 74.4769 270.561H105.235C110.758 270.561 115.235 266.084 115.235 260.561V88.5021C115.235 82.9792 110.758 78.5021 105.235 78.5021H74.4769ZM71.3361 99.0798C71.3361 101.353 73.1787 103.195 75.4516 103.195H105.632C107.905 103.195 109.748 101.353 109.748 99.0798C109.748 96.8069 107.905 94.9643 105.632 94.9643H75.4516C73.1787 94.9643 71.3361 96.8069 71.3361 99.0798ZM75.4516 119.658C73.1787 119.658 71.3361 117.815 71.3361 115.542C71.3361 113.269 73.1787 111.426 75.4516 111.426H105.632C107.905 111.426 109.748 113.269 109.748 115.542C109.748 117.815 107.905 119.658 105.632 119.658H75.4516ZM71.3361 132.004C71.3361 134.277 73.1787 136.12 75.4516 136.12H105.632C107.905 136.12 109.748 134.277 109.748 132.004C109.748 129.731 107.905 127.889 105.632 127.889H75.4516C73.1787 127.889 71.3361 129.731 71.3361 132.004Z" fill="#A7517A"/>
</g>
<defs>
<clipPath id="clip0_678_1115">
<rect width="300" height="300" fill="white"/>
</clipPath>
</defs>
</svg>
