<svg width="300" height="300" viewBox="0 0 300 300" fill="none" xmlns="http://www.w3.org/2000/svg">
<path d="M43.8819 124.591C38.359 124.591 33.8819 129.068 33.8819 134.591V268C33.8819 273.523 38.359 278 43.8819 278H120.154V222.253C120.154 216.73 124.631 212.253 130.154 212.253H168.097C173.62 212.253 178.097 216.73 178.097 222.253V278H255.657C261.18 278 265.657 273.523 265.657 268V134.591C265.657 129.068 261.18 124.591 255.657 124.591H43.8819Z" fill="#A7517A"/>
<path d="M147.549 23.3785C149.071 22.5226 150.929 22.5226 152.451 23.3785L284.05 97.392C288.534 99.9143 286.744 106.75 281.599 106.75H18.4016C13.2561 106.75 11.4658 99.9143 15.9505 97.392L147.549 23.3785Z" fill="#A7517A"/>
</svg>
