<svg width="300" height="300" viewBox="0 0 300 300" fill="none" xmlns="http://www.w3.org/2000/svg">
<g clip-path="url(#clip0_678_1200)">
<path fill-rule="evenodd" clip-rule="evenodd" d="M150 300C232.843 300 300 232.843 300 150C300 67.1573 232.843 0 150 0C67.1573 0 0 67.1573 0 150C0 232.843 67.1573 300 150 300ZM150 284C224.006 284 284 224.006 284 150C284 75.9938 224.006 16 150 16C75.9938 16 16 75.9938 16 150C16 224.006 75.9938 284 150 284Z" fill="#A7517A"/>
<path d="M175 69C175 82.8071 163.807 94 150 94C136.193 94 125 82.8071 125 69C125 55.1929 136.193 44 150 44C163.807 44 175 55.1929 175 69Z" fill="#A7517A"/>
<path d="M130 120C130 114.477 134.477 110 140 110H160C165.523 110 170 114.477 170 120V261C170 266.523 165.523 271 160 271H140C134.477 271 130 266.523 130 261V120Z" fill="#A7517A"/>
</g>
<defs>
<clipPath id="clip0_678_1200">
<rect width="300" height="300" fill="white"/>
</clipPath>
</defs>
</svg>
