<svg width="300" height="300" viewBox="0 0 300 300" fill="none" xmlns="http://www.w3.org/2000/svg">
<path fill-rule="evenodd" clip-rule="evenodd" d="M64 10C64 4.47716 68.4772 0 74 0H225C230.523 0 235 4.47715 235 10V290C235 295.523 230.523 300 225 300H74C68.4772 300 64 295.523 64 290V10ZM80 26C80 20.4772 84.4772 16 90 16H209C214.523 16 219 20.4772 219 26V234C219 239.523 214.523 244 209 244H90C84.4772 244 80 239.523 80 234V26ZM150 290C159.941 290 168 281.941 168 272C168 262.059 159.941 254 150 254C140.059 254 132 262.059 132 272C132 281.941 140.059 290 150 290Z" fill="#A7517A"/>
</svg>
