<svg width="300" height="300" viewBox="0 0 300 300" fill="none" xmlns="http://www.w3.org/2000/svg">
<path d="M16 68C16 62.4771 20.4772 58 26 58H273C278.523 58 283 62.4772 283 68V235C283 240.523 278.523 245 273 245H26C20.4771 245 16 240.523 16 235V68Z" fill="#A7517A"/>
<path fill-rule="evenodd" clip-rule="evenodd" d="M172.664 38.5586C173.412 36.9381 175.099 36 176.884 36H289.027C290.859 36 292.582 36.9902 293.313 38.6702C293.354 38.7644 293.394 38.8581 293.433 38.9513C294.794 42.174 297.097 45.1363 298.777 48.2045C299.557 49.6282 300 51.2624 300 53V74C300 80.0751 295.075 85 289 85H11C4.92487 85 0 80.0751 0 74V53C0 47.4772 4.47715 43 10 43H166.475C169.205 43 171.519 41.0371 172.664 38.5586ZM172.79 48.5586C173.538 46.9381 175.226 46 177.011 46H289.154C290.986 46 292.708 46.9902 293.439 48.6702C296.127 54.8461 295.334 59.0518 293.323 64.7452C292.629 66.7108 290.745 68 288.661 68H177.568C175.495 68 173.62 66.7256 172.92 64.7748C170.801 58.8706 170.005 54.5883 172.79 48.5586Z" fill="#A7517A"/>
<path d="M11 97C4.92488 97 0 101.925 0 108V246C0 251.523 4.47716 256 10 256H290C295.523 256 300 251.523 300 246V108C300 101.925 295.075 97 289 97H11Z" fill="#A7517A"/>
</svg>
