
<svg width="300" height="300" viewBox="0 0 300 300" fill="none" xmlns="http://www.w3.org/2000/svg">
<path d="M34 123.487C34 117.083 39.9607 112.339 46.2272 113.66C122.396 129.714 171.691 129.833 253.904 113.474C260.131 112.235 266 116.967 266 123.316V248.703C266 253.395 262.732 257.463 258.143 258.443C175.344 276.129 125.403 276.89 41.7886 258.484C37.2327 257.481 34 253.428 34 248.763V123.487Z" fill="#A7517A"/>
<path d="M21.56 198C21.707 198 21.8537 197.998 22 197.995V190.664C21.9025 190.666 21.8047 190.667 21.7067 190.667C13.7685 190.667 7.33333 184.1 7.33333 176C7.33333 167.9 13.7685 161.333 21.7067 161.333C21.8047 161.333 21.9025 161.334 22 161.336V154.004C21.8537 154.001 21.707 154 21.56 154C9.65274 154 0 163.85 0 176C0 188.15 9.65274 198 21.56 198Z" fill="#A7517A"/>
<path d="M278.44 198C278.293 198 278.146 197.998 278 197.995V190.664C278.098 190.666 278.195 190.667 278.293 190.667C286.232 190.667 292.667 184.1 292.667 176C292.667 167.9 286.232 161.333 278.293 161.333C278.195 161.333 278.098 161.334 278 161.336V154.004C278.146 154.001 278.293 154 278.44 154C290.347 154 300 163.85 300 176C300 188.15 290.347 198 278.44 198Z" fill="#A7517A"/>
<path d="M215.337 78.7329C166.001 82.6212 126.144 82.5958 77.3006 78.6071V90.1881H28.1889L28.5311 99.9345C124.555 118.838 176.924 118.481 268.712 99.9345L268.563 95.7095H215.337V78.7329Z" fill="#A7517A"/>
<path d="M108.369 45.1151C76.1106 35.9994 28.0324 85.7687 28.0324 85.7687C19.4163 90.1287 22.551 103 32.2289 103H263.771C273.449 103 276.584 90.1287 267.968 85.7687C267.968 85.7687 213.439 35.9995 187.631 45.1151C161.822 54.2307 140.628 54.2308 108.369 45.1151Z" fill="#A7517A"/>
<path d="M171 34.5C171 38.0899 161.598 41 150 41C138.402 41 129 38.0899 129 34.5C129 30.9101 138.402 28 150 28C161.598 28 171 30.9101 171 34.5Z" fill="#A7517A"/>
</svg>
