<svg width="300" height="300" viewBox="0 0 300 300" fill="none" xmlns="http://www.w3.org/2000/svg">
<path fill-rule="evenodd" clip-rule="evenodd" d="M251 101.5C251 138.11 231.617 170.193 202.554 188.047C204.783 190.213 206 192.555 206 195C206 199.426 202.01 203.516 195.257 206.829C194.702 206.727 194.122 206.703 193.53 206.771C160.346 210.577 139.304 210.523 106.467 206.768C106.158 206.732 105.852 206.722 105.552 206.734C98.9142 203.438 95 199.384 95 195C95 192.84 95.9504 190.759 97.7088 188.811C67.9455 171.117 48 138.638 48 101.5C48 45.4431 93.4431 0 149.5 0C205.557 0 251 45.4431 251 101.5ZM123.451 130.733C120.44 131.138 118.328 133.907 118.733 136.917L126.199 192.417C126.604 195.428 129.372 197.54 132.383 197.135C135.393 196.73 137.505 193.962 137.101 190.951L129.635 135.451C129.23 132.44 126.461 130.328 123.451 130.733ZM179.101 136.917C179.505 133.907 177.393 131.138 174.383 130.733C171.372 130.328 168.604 132.44 168.199 135.451L160.733 190.951C160.328 193.962 162.44 196.73 165.451 197.135C168.461 197.54 171.23 195.428 171.635 192.417L179.101 136.917Z" fill="#A7517A"/>
<path d="M109 218.769V225C109 235.493 117.507 244 128 244H172C182.493 244 191 235.493 191 225V218.77C160.103 223.1 139.575 223.054 109 218.769Z" fill="#A7517A"/>
<path d="M176 238H123V243.419C141.663 244.964 157.289 245.007 176 243.505V238Z" fill="#A7517A"/>
<path d="M176 255.604C157.288 257.506 141.662 257.458 123 255.501V283.88C123 288.84 128.5 300 140.34 300H158.66C170.5 300 176 288.84 176 283.88V255.604Z" fill="#A7517A"/>
</svg>
