<svg width="300" height="300" viewBox="0 0 300 300" fill="none" xmlns="http://www.w3.org/2000/svg">
<path d="M148.096 252.744C148.974 252.278 150.026 252.278 150.904 252.744L185.396 271.011C187.895 272.335 190.502 273.444 193.189 274.327L216.999 282.15C220.239 283.215 219.473 288 216.063 288H82.9374C79.5268 288 78.7607 283.215 82.0009 282.15L105.811 274.327C108.497 273.444 111.105 272.335 113.604 271.011L148.096 252.744Z" fill="#A7517A"/>
<path d="M173 265C173 268.866 162.479 272 149.5 272C136.521 272 126 268.866 126 265C126 261.134 136.521 258 149.5 258C162.479 258 173 261.134 173 265Z" fill="#A7517A"/>
<path d="M141 179H156V262H141V179Z" fill="#A7517A"/>
<path d="M171 175C171 178.314 160.479 181 147.5 181C134.521 181 124 178.314 124 175C124 171.686 134.521 169 147.5 169C160.479 169 171 171.686 171 175Z" fill="#A7517A"/>
<path fill-rule="evenodd" clip-rule="evenodd" d="M215 20.5C215 24.6421 185.227 28 148.5 28C111.773 28 82 24.6421 82 20.5C82 20.332 82.049 20.1653 82.1454 20H82L78.0891 147.106C78.0299 147.567 78 148.032 78 148.5C78 148.742 78.008 148.983 78.0239 149.223L78 150H78.1031C80.0999 164.49 110.854 176 148.5 176C186.146 176 216.9 164.49 218.897 150H219L218.976 149.223C218.992 148.983 219 148.742 219 148.5C219 148.032 218.97 147.567 218.911 147.106L215 20H214.855C214.951 20.1653 215 20.332 215 20.5ZM210.094 119.119L210.987 147.665C210.996 147.799 211 147.933 211 148.068C211 159.076 182.794 168 148 168C113.206 168 85 159.076 85 148.068C85 147.933 85.0042 147.799 85.0126 147.665L85.9065 119.119C85.9065 115.187 113.707 112 148 112C182.293 112 210.094 115.187 210.094 119.119Z" fill="#A7517A"/>
</svg>
