<svg width="264" height="201" viewBox="0 0 264 201" fill="none" xmlns="http://www.w3.org/2000/svg">
<path d="M178.847 141.614C222.093 132.178 243.779 96.6516 227.285 62.2641C210.79 27.8766 162.361 7.64973 119.115 17.0861C75.8692 26.5226 54.1828 62.0489 70.6774 96.4364C87.1719 130.824 135.601 151.051 178.847 141.614Z" fill="#0B0010"/>
<path d="M17.1491 176.699C-41.2269 218.91 75.9928 42.3701 75.9928 42.3701L150.476 143.939C150.476 143.939 75.5249 134.488 17.1491 176.699Z" fill="#0B0010"/>
<path d="M76.5849 124.852C49.7025 138.324 34.9283 110.153 15.0749 138.44C-4.7784 166.726 33.0498 162.86 50.9091 160.002C69.9544 156.955 103.468 111.381 76.5849 124.852Z" fill="#A53678"/>
<path d="M10.697 185.696C38.1221 170.059 32.7418 170.595 56.2867 157.894C79.8316 145.193 22.4149 146.106 19.6637 135.81C16.9125 125.513 -16.7279 201.334 10.697 185.696Z" fill="#A53678"/>
<path d="M85.8732 165.72C87.2777 156.293 95.3739 149.314 104.907 149.314H244.374C256.131 149.314 265.14 159.763 263.408 171.391L261.497 184.218C260.092 193.646 251.996 200.624 242.463 200.624H102.996C91.2384 200.624 82.2297 190.175 83.962 178.548L85.8732 165.72Z" fill="#A53678"/>
<path d="M114.083 162.685C114.62 162.685 115.064 162.86 115.416 163.212C115.767 163.563 115.943 164.018 115.943 164.576V183.734C115.943 184.271 115.767 184.726 115.416 185.098C115.064 185.449 114.62 185.625 114.083 185.625C113.545 185.625 113.101 185.449 112.75 185.098C112.398 184.726 112.223 184.271 112.223 183.734V182.215L112.905 182.494C112.905 182.762 112.76 183.093 112.471 183.486C112.181 183.858 111.789 184.23 111.293 184.602C110.797 184.974 110.208 185.294 109.526 185.563C108.864 185.811 108.141 185.935 107.356 185.935C105.93 185.935 104.638 185.573 103.481 184.85C102.323 184.106 101.404 183.093 100.722 181.812C100.06 180.51 99.7297 179.022 99.7297 177.348C99.7297 175.653 100.06 174.165 100.722 172.884C101.404 171.582 102.313 170.569 103.45 169.846C104.586 169.102 105.847 168.73 107.232 168.73C108.12 168.73 108.937 168.864 109.681 169.133C110.425 169.401 111.065 169.742 111.603 170.156C112.161 170.569 112.584 170.993 112.874 171.427C113.184 171.84 113.339 172.191 113.339 172.481L112.223 172.884V164.576C112.223 164.038 112.398 163.594 112.75 163.243C113.101 162.871 113.545 162.685 114.083 162.685ZM107.821 182.525C108.73 182.525 109.526 182.297 110.208 181.843C110.89 181.388 111.417 180.768 111.789 179.983C112.181 179.197 112.378 178.319 112.378 177.348C112.378 176.356 112.181 175.467 111.789 174.682C111.417 173.896 110.89 173.276 110.208 172.822C109.526 172.367 108.73 172.14 107.821 172.14C106.932 172.14 106.147 172.367 105.465 172.822C104.783 173.276 104.245 173.896 103.853 174.682C103.481 175.467 103.295 176.356 103.295 177.348C103.295 178.319 103.481 179.197 103.853 179.983C104.245 180.768 104.783 181.388 105.465 181.843C106.147 182.297 106.932 182.525 107.821 182.525ZM127.783 185.935C126.026 185.935 124.497 185.573 123.195 184.85C121.913 184.106 120.921 183.103 120.219 181.843C119.537 180.582 119.196 179.156 119.196 177.565C119.196 175.705 119.568 174.124 120.312 172.822C121.076 171.499 122.068 170.486 123.288 169.784C124.507 169.081 125.799 168.73 127.163 168.73C128.217 168.73 129.209 168.947 130.139 169.381C131.089 169.815 131.926 170.414 132.65 171.179C133.373 171.923 133.941 172.791 134.355 173.783C134.789 174.775 135.006 175.829 135.006 176.945C134.985 177.441 134.789 177.844 134.417 178.154C134.045 178.464 133.611 178.619 133.115 178.619H121.273L120.343 175.519H131.72L131.038 176.139V175.302C130.996 174.702 130.779 174.165 130.387 173.69C130.015 173.214 129.539 172.842 128.961 172.574C128.403 172.284 127.803 172.14 127.163 172.14C126.543 172.14 125.964 172.222 125.427 172.388C124.889 172.553 124.424 172.832 124.032 173.225C123.639 173.617 123.329 174.144 123.102 174.806C122.874 175.467 122.761 176.304 122.761 177.317C122.761 178.433 122.988 179.383 123.443 180.169C123.918 180.933 124.517 181.522 125.241 181.936C125.985 182.328 126.77 182.525 127.597 182.525C128.361 182.525 128.971 182.463 129.426 182.339C129.88 182.215 130.242 182.07 130.511 181.905C130.8 181.719 131.058 181.564 131.286 181.44C131.658 181.254 132.009 181.161 132.34 181.161C132.794 181.161 133.166 181.316 133.456 181.626C133.766 181.936 133.921 182.297 133.921 182.711C133.921 183.269 133.631 183.775 133.053 184.23C132.515 184.684 131.761 185.087 130.79 185.439C129.818 185.769 128.816 185.935 127.783 185.935ZM138.848 169.04C139.241 169.04 139.603 169.143 139.933 169.35C140.264 169.536 140.512 169.825 140.677 170.218L145.234 180.634L144.552 180.944L149.202 170.249C149.554 169.422 150.101 169.029 150.845 169.071C151.362 169.071 151.775 169.236 152.085 169.567C152.416 169.877 152.581 170.269 152.581 170.745C152.581 170.889 152.55 171.044 152.488 171.21C152.447 171.375 152.395 171.53 152.333 171.675L146.536 184.447C146.206 185.191 145.679 185.583 144.955 185.625C144.563 185.687 144.18 185.614 143.808 185.408C143.457 185.201 143.188 184.881 143.002 184.447L137.236 171.675C137.195 171.571 137.143 171.437 137.081 171.272C137.04 171.106 137.019 170.91 137.019 170.683C137.019 170.311 137.185 169.949 137.515 169.598C137.846 169.226 138.29 169.04 138.848 169.04ZM170.834 185.935C169.367 185.935 168.044 185.614 166.866 184.974C165.709 184.333 164.789 183.496 164.107 182.463C163.446 181.429 163.115 180.324 163.115 179.146C163.115 178.112 163.291 177.172 163.642 176.325C164.014 175.457 164.562 174.692 165.285 174.031C166.029 173.369 166.969 172.811 168.106 172.357L170.524 174.868C169.077 175.178 168.106 175.653 167.61 176.294C167.135 176.914 166.897 177.678 166.897 178.588C166.897 179.208 167.052 179.817 167.362 180.417C167.672 180.995 168.178 181.481 168.881 181.874C169.584 182.246 170.524 182.432 171.702 182.432C172.673 182.432 173.541 182.215 174.306 181.781C175.091 181.326 175.763 180.737 176.321 180.014C176.9 179.27 177.365 178.453 177.716 177.565C178.088 176.655 178.336 175.736 178.46 174.806C178.501 174.475 178.625 174.217 178.832 174.031C179.059 173.845 179.431 173.752 179.948 173.752C180.485 173.752 180.909 173.969 181.219 174.403C181.529 174.837 181.643 175.343 181.56 175.922C181.374 177.162 181.012 178.381 180.475 179.58C179.958 180.758 179.256 181.832 178.367 182.804C177.499 183.754 176.435 184.519 175.174 185.098C173.934 185.656 172.487 185.935 170.834 185.935ZM181.87 185.687C181.622 185.687 181.405 185.656 181.219 185.594C181.054 185.532 180.919 185.459 180.816 185.377C179.328 184.095 177.964 182.917 176.724 181.843C175.505 180.747 174.378 179.704 173.345 178.712C172.312 177.72 171.34 176.707 170.431 175.674C169.708 174.847 169.046 174.103 168.447 173.442C167.848 172.78 167.362 172.14 166.99 171.52C166.639 170.879 166.463 170.176 166.463 169.412C166.463 168.399 166.732 167.459 167.269 166.591C167.827 165.702 168.612 164.989 169.625 164.452C170.638 163.894 171.836 163.615 173.221 163.615C174.647 163.615 175.928 163.852 177.065 164.328C178.222 164.803 178.997 165.433 179.39 166.219C179.411 166.239 179.462 166.374 179.545 166.622C179.628 166.849 179.669 167.118 179.669 167.428C179.669 167.82 179.524 168.161 179.235 168.451C178.946 168.74 178.553 168.885 178.057 168.885C177.726 168.885 177.468 168.823 177.282 168.699C177.096 168.575 176.951 168.451 176.848 168.327C176.393 167.727 175.866 167.314 175.267 167.087C174.688 166.839 174.006 166.715 173.221 166.715C172.291 166.715 171.578 166.963 171.082 167.459C170.607 167.955 170.369 168.544 170.369 169.226C170.369 169.866 170.596 170.507 171.051 171.148C171.506 171.768 172.022 172.357 172.601 172.915C173.2 173.473 173.696 173.969 174.089 174.403C174.73 175.085 175.443 175.818 176.228 176.604C177.034 177.368 177.84 178.123 178.646 178.867C179.452 179.59 180.196 180.272 180.878 180.913C181.581 181.533 182.149 182.049 182.583 182.463C182.852 182.711 183.048 182.959 183.172 183.207C183.317 183.455 183.389 183.754 183.389 184.106C183.389 184.374 183.265 184.705 183.017 185.098C182.79 185.49 182.407 185.687 181.87 185.687ZM192.813 185.935C191.345 185.935 190.023 185.614 188.845 184.974C187.687 184.333 186.768 183.496 186.086 182.463C185.424 181.429 185.094 180.324 185.094 179.146C185.094 178.112 185.269 177.172 185.621 176.325C185.993 175.457 186.54 174.692 187.264 174.031C188.008 173.369 188.948 172.811 190.085 172.357L192.503 174.868C191.056 175.178 190.085 175.653 189.589 176.294C189.113 176.914 188.876 177.678 188.876 178.588C188.876 179.208 189.031 179.817 189.341 180.417C189.651 180.995 190.157 181.481 190.86 181.874C191.562 182.246 192.503 182.432 193.681 182.432C194.652 182.432 195.52 182.215 196.285 181.781C197.07 181.326 197.742 180.737 198.3 180.014C198.878 179.27 199.343 178.453 199.695 177.565C200.067 176.655 200.315 175.736 200.439 174.806C200.48 174.475 200.604 174.217 200.811 174.031C201.038 173.845 201.41 173.752 201.927 173.752C202.464 173.752 202.888 173.969 203.198 174.403C203.508 174.837 203.621 175.343 203.539 175.922C203.353 177.162 202.991 178.381 202.454 179.58C201.937 180.758 201.234 181.832 200.346 182.804C199.478 183.754 198.413 184.519 197.153 185.098C195.913 185.656 194.466 185.935 192.813 185.935ZM203.849 185.687C203.601 185.687 203.384 185.656 203.198 185.594C203.032 185.532 202.898 185.459 202.795 185.377C201.307 184.095 199.943 182.917 198.703 181.843C197.483 180.747 196.357 179.704 195.324 178.712C194.29 177.72 193.319 176.707 192.41 175.674C191.686 174.847 191.025 174.103 190.426 173.442C189.826 172.78 189.341 172.14 188.969 171.52C188.617 170.879 188.442 170.176 188.442 169.412C188.442 168.399 188.71 167.459 189.248 166.591C189.806 165.702 190.591 164.989 191.604 164.452C192.616 163.894 193.815 163.615 195.2 163.615C196.626 163.615 197.907 163.852 199.044 164.328C200.201 164.803 200.976 165.433 201.369 166.219C201.389 166.239 201.441 166.374 201.524 166.622C201.606 166.849 201.648 167.118 201.648 167.428C201.648 167.82 201.503 168.161 201.214 168.451C200.924 168.74 200.532 168.885 200.036 168.885C199.705 168.885 199.447 168.823 199.261 168.699C199.075 168.575 198.93 168.451 198.827 168.327C198.372 167.727 197.845 167.314 197.246 167.087C196.667 166.839 195.985 166.715 195.2 166.715C194.27 166.715 193.557 166.963 193.061 167.459C192.585 167.955 192.348 168.544 192.348 169.226C192.348 169.866 192.575 170.507 193.03 171.148C193.484 171.768 194.001 172.357 194.58 172.915C195.179 173.473 195.675 173.969 196.068 174.403C196.708 175.085 197.421 175.818 198.207 176.604C199.013 177.368 199.819 178.123 200.625 178.867C201.431 179.59 202.175 180.272 202.857 180.913C203.559 181.533 204.128 182.049 204.562 182.463C204.83 182.711 205.027 182.959 205.151 183.207C205.295 183.455 205.368 183.754 205.368 184.106C205.368 184.374 205.244 184.705 204.996 185.098C204.768 185.49 204.386 185.687 203.849 185.687ZM229.153 169.04C229.69 169.04 230.134 169.226 230.486 169.598C230.837 169.949 231.013 170.393 231.013 170.931V178.805C231.013 180.995 230.403 182.731 229.184 184.013C227.964 185.294 226.208 185.935 223.914 185.935C221.62 185.935 219.863 185.294 218.644 184.013C217.445 182.731 216.846 180.995 216.846 178.805V170.931C216.846 170.393 217.021 169.949 217.373 169.598C217.724 169.226 218.168 169.04 218.706 169.04C219.243 169.04 219.687 169.226 220.039 169.598C220.39 169.949 220.566 170.393 220.566 170.931V178.805C220.566 180.065 220.845 181.006 221.403 181.626C221.961 182.225 222.798 182.525 223.914 182.525C225.05 182.525 225.898 182.225 226.456 181.626C227.014 181.006 227.293 180.065 227.293 178.805V170.931C227.293 170.393 227.468 169.949 227.82 169.598C228.171 169.226 228.615 169.04 229.153 169.04ZM235.381 169.04C235.98 169.04 236.487 169.298 236.9 169.815L247.254 182.68C247.523 183.01 247.657 183.382 247.657 183.796C247.657 184.312 247.461 184.757 247.068 185.129C246.675 185.501 246.241 185.687 245.766 185.687C245.167 185.687 244.66 185.418 244.247 184.881L233.893 172.016C233.624 171.685 233.49 171.313 233.49 170.9C233.49 170.362 233.676 169.918 234.048 169.567C234.441 169.215 234.885 169.04 235.381 169.04ZM235.412 185.656C234.999 185.656 234.585 185.501 234.172 185.191C233.779 184.86 233.583 184.467 233.583 184.013C233.583 183.599 233.738 183.207 234.048 182.835L238.791 177.038L240.651 180.138L236.9 184.881C236.507 185.397 236.011 185.656 235.412 185.656ZM245.735 169.04C246.231 169.04 246.644 169.215 246.975 169.567C247.326 169.897 247.502 170.28 247.502 170.714C247.502 170.92 247.471 171.127 247.409 171.334C247.347 171.54 247.233 171.737 247.068 171.923L242.387 177.627L240.434 174.93L244.247 169.877C244.66 169.319 245.156 169.04 245.735 169.04Z" fill="#3944A9"/>
<path d="M112.244 60.3248C113.188 60.3248 113.955 60.6395 114.545 61.2688C115.135 61.8981 115.43 62.6848 115.43 63.6288V98.0258C115.43 99.0485 115.076 99.9138 114.368 100.622C113.699 101.29 112.853 101.625 111.831 101.625C111.319 101.625 110.788 101.546 110.238 101.389C109.726 101.192 109.333 100.936 109.058 100.622L85.8706 71.1808L87.4046 70.2368V98.3208C87.4046 99.2648 87.09 100.051 86.4606 100.681C85.8706 101.31 85.084 101.625 84.1006 101.625C83.1566 101.625 82.3896 101.31 81.7996 100.681C81.2096 100.051 80.9146 99.2648 80.9146 98.3208V63.9238C80.9146 62.9011 81.249 62.0555 81.9176 61.3868C82.6256 60.6788 83.491 60.3248 84.5136 60.3248C85.0643 60.3248 85.6346 60.4428 86.2246 60.6788C86.8146 60.8755 87.2473 61.1901 87.5226 61.6228L110.002 90.2968L108.999 91.0048V63.6288C108.999 62.6848 109.294 61.8981 109.884 61.2688C110.474 60.6395 111.26 60.3248 112.244 60.3248ZM149.552 69.4698C150.575 69.4698 151.421 69.8041 152.089 70.4728C152.758 71.1415 153.092 72.0068 153.092 73.0688V98.0258C153.092 99.0485 152.758 99.9138 152.089 100.622C151.421 101.29 150.575 101.625 149.552 101.625C148.53 101.625 147.684 101.29 147.015 100.622C146.347 99.9138 146.012 99.0485 146.012 98.0258V95.1348L147.31 95.6658C147.31 96.1771 147.035 96.8065 146.484 97.5538C145.934 98.2618 145.186 98.9698 144.242 99.6778C143.298 100.386 142.177 100.995 140.879 101.507C139.621 101.979 138.244 102.215 136.749 102.215C134.035 102.215 131.577 101.526 129.374 100.15C127.172 98.7338 125.421 96.8065 124.123 94.3678C122.865 91.8898 122.235 89.0578 122.235 85.8718C122.235 82.6465 122.865 79.8145 124.123 77.3758C125.421 74.8978 127.152 72.9705 129.315 71.5938C131.479 70.1778 133.878 69.4698 136.513 69.4698C138.205 69.4698 139.758 69.7255 141.174 70.2368C142.59 70.7481 143.81 71.3971 144.832 72.1838C145.894 72.9705 146.701 73.7768 147.251 74.6028C147.841 75.3895 148.136 76.0581 148.136 76.6088L146.012 77.3758V73.0688C146.012 72.0461 146.347 71.2005 147.015 70.5318C147.684 69.8238 148.53 69.4698 149.552 69.4698ZM137.634 95.7248C139.365 95.7248 140.879 95.2921 142.177 94.4268C143.475 93.5615 144.478 92.3815 145.186 90.8868C145.934 89.3921 146.307 87.7205 146.307 85.8718C146.307 83.9838 145.934 82.2925 145.186 80.7978C144.478 79.3031 143.475 78.1231 142.177 77.2578C140.879 76.3925 139.365 75.9598 137.634 75.9598C135.943 75.9598 134.448 76.3925 133.15 77.2578C131.852 78.1231 130.83 79.3031 130.082 80.7978C129.374 82.2925 129.02 83.9838 129.02 85.8718C129.02 87.7205 129.374 89.3921 130.082 90.8868C130.83 92.3815 131.852 93.5615 133.15 94.4268C134.448 95.2921 135.943 95.7248 137.634 95.7248ZM164.298 101.625C163.276 101.625 162.43 101.29 161.761 100.622C161.093 99.9138 160.758 99.0485 160.758 98.0258V73.6588C160.758 72.6361 161.093 71.7905 161.761 71.1218C162.43 70.4138 163.276 70.0598 164.298 70.0598C165.321 70.0598 166.167 70.4138 166.835 71.1218C167.504 71.7905 167.838 72.6361 167.838 73.6588V79.2048L167.425 75.2518C167.858 74.3078 168.409 73.4818 169.077 72.7738C169.785 72.0265 170.572 71.4168 171.437 70.9448C172.303 70.4335 173.227 70.0598 174.21 69.8238C175.194 69.5878 176.177 69.4698 177.16 69.4698C178.34 69.4698 179.324 69.8041 180.11 70.4728C180.936 71.1415 181.349 71.9281 181.349 72.8328C181.349 74.1308 181.015 75.0748 180.346 75.6648C179.678 76.2155 178.95 76.4908 178.163 76.4908C177.416 76.4908 176.728 76.3531 176.098 76.0778C175.508 75.8025 174.82 75.6648 174.033 75.6648C173.325 75.6648 172.598 75.8418 171.85 76.1958C171.142 76.5105 170.474 77.0218 169.844 77.7298C169.254 78.4378 168.763 79.3228 168.369 80.3848C168.015 81.4075 167.838 82.6268 167.838 84.0428V98.0258C167.838 99.0485 167.504 99.9138 166.835 100.622C166.167 101.29 165.321 101.625 164.298 101.625ZM211.491 69.4698C212.514 69.4698 213.359 69.8041 214.028 70.4728C214.697 71.1415 215.031 72.0068 215.031 73.0688V98.0258C215.031 99.0485 214.697 99.9138 214.028 100.622C213.359 101.29 212.514 101.625 211.491 101.625C210.468 101.625 209.623 101.29 208.954 100.622C208.285 99.9138 207.951 99.0485 207.951 98.0258V95.1348L209.249 95.6658C209.249 96.1771 208.974 96.8065 208.423 97.5538C207.872 98.2618 207.125 98.9698 206.181 99.6778C205.237 100.386 204.116 100.995 202.818 101.507C201.559 101.979 200.183 102.215 198.688 102.215C195.974 102.215 193.516 101.526 191.313 100.15C189.11 98.7338 187.36 96.8065 186.062 94.3678C184.803 91.8898 184.174 89.0578 184.174 85.8718C184.174 82.6465 184.803 79.8145 186.062 77.3758C187.36 74.8978 189.091 72.9705 191.254 71.5938C193.417 70.1778 195.817 69.4698 198.452 69.4698C200.143 69.4698 201.697 69.7255 203.113 70.2368C204.529 70.7481 205.748 71.3971 206.771 72.1838C207.833 72.9705 208.639 73.7768 209.19 74.6028C209.78 75.3895 210.075 76.0581 210.075 76.6088L207.951 77.3758V73.0688C207.951 72.0461 208.285 71.2005 208.954 70.5318C209.623 69.8238 210.468 69.4698 211.491 69.4698ZM199.573 95.7248C201.304 95.7248 202.818 95.2921 204.116 94.4268C205.414 93.5615 206.417 92.3815 207.125 90.8868C207.872 89.3921 208.246 87.7205 208.246 85.8718C208.246 83.9838 207.872 82.2925 207.125 80.7978C206.417 79.3031 205.414 78.1231 204.116 77.2578C202.818 76.3925 201.304 75.9598 199.573 75.9598C197.882 75.9598 196.387 76.3925 195.089 77.2578C193.791 78.1231 192.768 79.3031 192.021 80.7978C191.313 82.2925 190.959 83.9838 190.959 85.8718C190.959 87.7205 191.313 89.3921 192.021 90.8868C192.768 92.3815 193.791 93.5615 195.089 94.4268C196.387 95.2921 197.882 95.7248 199.573 95.7248Z" fill="#3944A9"/>
</svg>
