<svg width="300" height="300" viewBox="0 0 300 300" fill="none" xmlns="http://www.w3.org/2000/svg">
<g clip-path="url(#clip0_678_1256)">
<path fill-rule="evenodd" clip-rule="evenodd" d="M25.081 233.067C48.6759 176.24 95.7625 137.485 150 137.485C204.238 137.485 251.324 176.24 274.919 233.067C290.765 209.285 300 180.721 300 150C300 67.1573 232.843 0 150 0C67.1573 0 0 67.1573 0 150C0 180.721 9.23528 209.285 25.081 233.067ZM202.326 69C202.326 98.2711 178.676 122 149.502 122C120.328 122 96.6777 98.2711 96.6777 69C96.6777 39.7289 120.328 16 149.502 16C178.676 16 202.326 39.7289 202.326 69Z" fill="#A7517A"/>
<path fill-rule="evenodd" clip-rule="evenodd" d="M150 300C232.843 300 300 232.843 300 150C300 67.1573 232.843 0 150 0C67.1573 0 0 67.1573 0 150C0 232.843 67.1573 300 150 300ZM150 284C224.006 284 284 224.006 284 150C284 75.9938 224.006 16 150 16C75.9938 16 16 75.9938 16 150C16 224.006 75.9938 284 150 284Z" fill="#A7517A"/>
</g>
<defs>
<clipPath id="clip0_678_1256">
<rect width="300" height="300" fill="white"/>
</clipPath>
</defs>
</svg>
