<svg width="300" height="300" viewBox="0 0 300 300" fill="none" xmlns="http://www.w3.org/2000/svg">
<g clip-path="url(#clip0_683_1446)">
<path fill-rule="evenodd" clip-rule="evenodd" d="M58 54.6429H58.0538C59.7283 71.3071 100.317 84.6429 150.143 84.6429C199.969 84.6429 240.557 71.3071 242.232 54.6429H242.286L220.857 267.857H220.816C220.843 268.213 220.857 268.57 220.857 268.929C220.857 286.089 189.197 300 150.143 300C111.088 300 79.4286 286.089 79.4286 268.929C79.4286 268.57 79.4424 268.213 79.4698 267.857H79.4286L58 54.6429ZM101.929 261.429C109.029 261.429 114.786 255.672 114.786 248.571C114.786 241.471 109.029 235.714 101.929 235.714C94.8277 235.714 89.0714 241.471 89.0714 248.571C89.0714 255.672 94.8277 261.429 101.929 261.429ZM215.5 229.286C215.5 238.753 207.825 246.429 198.357 246.429C188.889 246.429 181.214 238.753 181.214 229.286C181.214 219.818 188.889 212.143 198.357 212.143C207.825 212.143 215.5 219.818 215.5 229.286ZM105.143 226.071C114.611 226.071 122.286 218.396 122.286 208.929C122.286 199.461 114.611 191.786 105.143 191.786C95.6751 191.786 88 199.461 88 208.929C88 218.396 95.6751 226.071 105.143 226.071ZM157.708 241.203C157.672 248.304 151.886 254.031 144.786 253.994C137.685 253.958 131.958 248.172 131.995 241.071C132.031 233.971 137.817 228.244 144.917 228.28C152.018 228.317 157.745 234.102 157.708 241.203ZM181.214 289.286C190.682 289.286 198.357 281.611 198.357 272.143C198.357 262.675 190.682 255 181.214 255C171.747 255 164.071 262.675 164.071 272.143C164.071 281.611 171.747 289.286 181.214 289.286ZM139.429 278.572C139.429 285.672 133.672 291.429 126.571 291.429C119.471 291.429 113.714 285.672 113.714 278.572C113.714 271.471 119.471 265.714 126.571 265.714C133.672 265.714 139.429 271.471 139.429 278.572ZM158.714 215.357C165.815 215.357 171.571 209.601 171.571 202.5C171.571 195.399 165.815 189.643 158.714 189.643C151.614 189.643 145.857 195.399 145.857 202.5C145.857 209.601 151.614 215.357 158.714 215.357Z" fill="#A7517A"/>
<path d="M194.224 2.17812L221.929 4.18433L190.871 61.4355L163.167 59.4293L194.224 2.17812Z" fill="#A7517A"/>
<path d="M190.736 61.6116C190.325 63.5078 183.788 64.6563 176.134 64.1768C168.481 63.6973 162.61 61.7713 163.02 59.8751C163.431 57.9788 169.968 56.8303 177.622 57.3099C185.275 57.7894 191.147 59.7153 190.736 61.6116Z" fill="#A7517A"/>
<path d="M221.831 4.41679C221.421 6.31304 214.848 7.45931 207.151 6.97707C199.454 6.49482 193.547 4.56667 193.958 2.67042C194.368 0.77417 200.941 -0.372105 208.638 0.110142C216.335 0.592388 222.242 2.52054 221.831 4.41679Z" fill="#A7517A"/>
<path d="M194.224 2.17812L221.929 4.18433L190.871 61.4355L163.167 59.4293L194.224 2.17812Z" fill="#A7517A"/>
<path d="M190.736 61.6116C190.325 63.5078 183.788 64.6563 176.134 64.1768C168.481 63.6973 162.61 61.7713 163.02 59.8751C163.431 57.9788 169.968 56.8303 177.622 57.3099C185.275 57.7894 191.147 59.7153 190.736 61.6116Z" fill="#A7517A"/>
<path d="M221.831 4.41679C221.421 6.31304 214.848 7.45931 207.151 6.97707C199.454 6.49482 193.547 4.56667 193.958 2.67042C194.368 0.77417 200.941 -0.372105 208.638 0.110142C216.335 0.592388 222.242 2.52054 221.831 4.41679Z" fill="#A7517A"/>
</g>
<defs>
<clipPath id="clip0_683_1446">
<rect width="300" height="300" fill="white"/>
</clipPath>
</defs>
</svg>
