<svg width="300" height="300" viewBox="0 0 300 300" fill="none" xmlns="http://www.w3.org/2000/svg">
<g clip-path="url(#clip0_678_1010)">
<path d="M67.2453 300C27.4575 292.564 0.417602 278.297 0 261.883C30.2259 269.249 77.699 273.995 131.081 273.995C183.405 273.995 230.051 269.435 260.344 262.319C259.465 278.521 232.643 292.582 193.316 299.962C173.956 298.47 152.752 297.647 130.524 297.647C108.109 297.647 86.7367 298.484 67.2453 300Z" fill="#A7517A"/>
<path d="M250.033 138.233V122.708C252.943 122.128 255.97 121.822 259.079 121.822C281.679 121.822 300 137.993 300 157.94C300 177.887 281.679 194.058 259.079 194.058C255.97 194.058 252.943 193.752 250.033 193.172V176.997C259.691 173.138 266.193 165.903 266.193 157.615C266.193 149.328 259.691 142.093 250.033 138.233Z" fill="#A7517A"/>
<path d="M247.5 239.027C247.5 247.849 194.893 255 130 255C65.1065 255 12.5 247.849 12.5 239.027C12.5 230.206 65.1065 223.055 130 223.055C194.893 223.055 247.5 230.206 247.5 239.027Z" fill="#A7517A"/>
<path d="M10 204.264H250L248.867 217.155C247.733 230.065 236.922 239.967 223.963 239.967H36.0368C23.0778 239.967 12.2671 230.065 11.1328 217.155L10 204.264Z" fill="#A7517A"/>
<path d="M130 117.824C196.274 117.824 250 102.681 250 84V204.264H10V84C10 102.681 63.7258 117.824 130 117.824Z" fill="#A7517A"/>
<path fill-rule="evenodd" clip-rule="evenodd" d="M153.972 66.6052C152.743 63.7086 149.039 62.2242 145.699 63.2895C137.994 65.747 132.281 68.9425 128.812 72.9723C125.153 77.2234 124.375 81.9758 125.769 86.3901C127.087 90.5665 130.214 94.0954 133.712 96.7557C137.25 99.4464 141.571 101.564 145.966 102.779C149.357 103.716 152.982 102.092 154.063 99.1517C155.144 96.2112 153.272 93.0677 149.881 92.1304C147.192 91.3873 144.429 90.0402 142.211 88.3533C139.953 86.636 138.652 84.874 138.2 83.4396C137.822 82.243 137.93 81.0644 139.141 79.6577C140.542 78.0295 143.685 75.84 150.148 73.7787C153.488 72.7134 155.2 69.5017 153.972 66.6052Z" fill="#A7517A"/>
<path fill-rule="evenodd" clip-rule="evenodd" d="M141.876 37.6847C143.104 34.7882 146.808 33.3037 150.148 34.369C157.853 36.8265 163.566 40.022 167.035 44.0518C170.694 48.303 171.472 53.0553 170.078 57.4696C168.76 61.646 165.633 65.1749 162.135 67.8352C158.597 70.5259 154.276 72.6432 149.881 73.8583C146.49 74.7955 142.865 73.1717 141.784 70.2312C140.703 67.2907 142.576 64.1472 145.966 63.2099C148.655 62.4668 151.419 61.1197 153.637 59.4328C155.895 57.7155 157.195 55.9536 157.647 54.5191C158.025 53.3226 157.917 52.1439 156.706 50.7372C155.305 49.109 152.162 46.9196 145.699 44.8583C142.359 43.7929 140.647 40.5812 141.876 37.6847Z" fill="#A7517A"/>
<path fill-rule="evenodd" clip-rule="evenodd" d="M121.251 32.5811C120.023 29.6846 116.319 28.2001 112.979 29.2654C105.273 31.723 99.5609 34.9185 96.0921 38.9482C92.4327 43.1994 91.6549 47.9517 93.0482 52.3661C94.3665 56.5425 97.494 60.0713 100.992 62.7316C104.53 65.4223 108.85 67.5396 113.246 68.7547C116.637 69.692 120.262 68.0681 121.343 65.1276C122.424 62.1872 120.551 59.0436 117.16 58.1063C114.472 57.3632 111.708 56.0161 109.49 54.3292C107.232 52.6119 105.932 50.85 105.479 49.4155C105.102 48.219 105.209 47.0404 106.42 45.6336C107.822 44.0054 110.965 41.816 117.428 39.7547C120.768 38.6894 122.48 35.4776 121.251 32.5811Z" fill="#A7517A"/>
<path fill-rule="evenodd" clip-rule="evenodd" d="M109.155 3.66068C110.384 0.764149 114.087 -0.720328 117.428 0.345001C125.133 2.80253 130.845 5.99801 134.314 10.0278C137.974 14.279 138.751 19.0313 137.358 23.4456C136.04 27.622 132.912 31.1509 129.414 33.8112C125.877 36.5019 121.556 38.6192 117.16 39.8342C113.769 40.7715 110.144 39.1476 109.063 36.2072C107.983 33.2667 109.855 30.1232 113.246 29.1859C115.935 28.4428 118.698 27.0957 120.916 25.4088C123.174 23.6915 124.474 21.9295 124.927 20.4951C125.305 19.2986 125.197 18.1199 123.986 16.7132C122.585 15.085 119.442 12.8955 112.979 10.8343C109.638 9.76892 107.927 6.5572 109.155 3.66068Z" fill="#A7517A"/>
</g>
<defs>
<clipPath id="clip0_678_1010">
<rect width="300" height="300" fill="white"/>
</clipPath>
</defs>
</svg>
