<svg width="300" height="300" viewBox="0 0 300 300" fill="none" xmlns="http://www.w3.org/2000/svg">
<path fill-rule="evenodd" clip-rule="evenodd" d="M25.6663 185.864C11.0547 185.864 1.37515 170.705 7.52239 157.449L52.9065 59.5858C56.1829 52.5207 63.2626 48 71.0504 48H228.661C236.449 48 243.528 52.5207 246.805 59.5858L292.189 157.45C298.336 170.705 288.657 185.864 274.045 185.864H25.6663ZM84.418 137.146C84.418 133.832 87.1043 131.146 90.418 131.146C97.5907 131.146 103.405 125.331 103.405 118.159V116.866C103.405 113.552 106.092 110.866 109.405 110.866H116.393C119.706 110.866 122.393 113.552 122.393 116.866V118.159C122.393 125.331 128.207 131.146 135.38 131.146C138.694 131.146 141.38 133.832 141.38 137.146V145.426C141.38 148.74 138.694 151.426 135.38 151.426C128.207 151.426 122.393 157.241 122.393 164.413V165.706C122.393 169.02 119.706 171.706 116.393 171.706H109.405C106.092 171.706 103.405 169.02 103.405 165.706V164.413C103.405 157.241 97.5907 151.426 90.418 151.426C87.1043 151.426 84.418 148.74 84.418 145.426V137.146ZM242.848 85.0375C242.848 90.6377 238.597 95.1775 233.354 95.1775C228.111 95.1775 223.86 90.6377 223.86 85.0375C223.86 79.4373 228.111 74.8975 233.354 74.8975C238.597 74.8975 242.848 79.4373 242.848 85.0375ZM214.367 115.458C219.61 115.458 223.86 110.918 223.86 105.318C223.86 99.7174 219.61 95.1775 214.367 95.1775C209.124 95.1775 204.873 99.7174 204.873 105.318C204.873 110.918 209.124 115.458 214.367 115.458ZM204.873 85.0375C204.873 90.6377 200.623 95.1775 195.379 95.1775C190.136 95.1775 185.886 90.6377 185.886 85.0375C185.886 79.4373 190.136 74.8975 195.379 74.8975C200.623 74.8975 204.873 79.4373 204.873 85.0375ZM214.367 74.8975C219.61 74.8975 223.86 70.3577 223.86 64.7575C223.86 59.1573 219.61 54.6175 214.367 54.6175C209.124 54.6175 204.873 59.1573 204.873 64.7575C204.873 70.3577 209.124 74.8975 214.367 74.8975ZM209.047 143.953C209.047 156.745 198.677 167.114 185.886 167.114C173.094 167.114 162.725 156.745 162.725 143.953C162.725 131.162 173.094 120.792 185.886 120.792C198.677 120.792 209.047 131.162 209.047 143.953ZM83.3151 110.866C96.1066 110.866 106.476 100.496 106.476 87.7048C106.476 74.9132 96.1066 64.5436 83.3151 64.5436C70.5236 64.5436 60.154 74.9132 60.154 87.7048C60.154 100.496 70.5236 110.866 83.3151 110.866Z" fill="#A7517A"/>
<path d="M68.1939 253.325C66.1226 272.231 41.3183 277.845 31.3075 261.674L3.57384 216.874C1.22426 213.078 0.211952 208.606 0.698084 204.168L4.81178 166.619C6.08947 154.957 17.0851 146.894 28.5923 149.181L60.5384 155.532C70.7106 157.554 77.6494 167.016 76.5199 177.326L68.1939 253.325Z" fill="#A7517A"/>
<path d="M231.104 252.325C233.175 271.231 257.979 276.845 267.99 260.674L295.724 215.874C298.073 212.078 299.086 207.606 298.599 203.168L294.486 165.619C293.208 153.957 282.212 145.894 270.705 148.181L238.759 154.532C228.587 156.554 221.648 166.016 222.778 176.326L231.104 252.325Z" fill="#A7517A"/>
<path d="M264 175.93L221.079 150L183 185.686C188.433 183.262 200.235 185.931 211.122 192.337C221.799 198.618 228.055 206.408 226.579 211L264 175.93Z" fill="#A7517A"/>
<path d="M34 175.93L76.9214 150L115 185.686C109.567 183.262 97.7654 185.931 86.8781 192.337C76.2011 198.618 69.9451 206.408 71.4207 211L34 175.93Z" fill="#A7517A"/>
</svg>
