<svg width="300" height="300" viewBox="0 0 300 300" fill="none" xmlns="http://www.w3.org/2000/svg">
<path fill-rule="evenodd" clip-rule="evenodd" d="M146.412 207.921C148.406 210.237 151.994 210.237 153.988 207.921L284.767 56.0926C284.919 56.7874 285 57.5093 285 58.25V238.25C285 243.773 280.523 248.25 275 248.25H24C18.4771 248.25 14 243.773 14 238.25V58.25C14 57.0655 14.206 55.929 14.584 54.8745L146.412 207.921ZM212.869 158.799C210.075 155.734 206.061 156.122 203.905 159.665C201.748 163.208 202.266 168.565 205.06 171.63L268.445 241.138C271.24 244.203 275.254 243.815 277.41 240.272C279.567 236.729 279.049 231.373 276.255 228.308L212.869 158.799ZM96.4104 159.665C94.254 156.122 90.2403 155.734 87.4456 158.799L24.0604 228.308C21.2656 231.373 20.7482 236.729 22.9046 240.272C25.0611 243.815 29.0748 244.203 31.8695 241.138L95.2547 171.63C98.0494 168.565 98.5669 163.208 96.4104 159.665Z" fill="#A7517A"/>
<path d="M145.747 183.986C147.738 186.248 151.262 186.248 153.253 183.986L263.001 59.3036C265.844 56.0738 263.551 51 259.248 51H39.7516C35.4489 51 33.1555 56.0738 35.9985 59.3036L145.747 183.986Z" fill="#A7517A"/>
</svg>
