<svg width="300" height="300" viewBox="0 0 300 300" fill="none" xmlns="http://www.w3.org/2000/svg">
<path d="M216.967 42.6557C217.905 41.2899 219.773 40.9431 221.139 41.8811L231.771 49.1829C233.137 50.1209 233.484 51.9885 232.546 53.3543L160.08 158.872C159.142 160.238 157.274 160.585 155.908 159.647L145.276 152.345C143.91 151.407 143.563 149.54 144.501 148.174L216.967 42.6557Z" fill="#A7517A"/>
<path d="M265.925 25.8343C277.878 26.6595 264.982 16.178 258.725 11.5231C256.904 10.1679 254.484 10.0428 252.506 11.1585C242.418 16.8506 212.542 34.0954 220.784 34.1299C221.639 34.1335 222.354 34.1239 222.948 34.1046C226.761 33.9809 224.433 35.3995 227.966 36.8381C233.18 38.9611 239.159 42.271 237.648 45.8825C235.069 52.05 250.598 24.776 265.925 25.8343Z" fill="#A7517A"/>
<path d="M272.679 28.299C268.65 34.1651 260.629 35.6547 254.762 31.6261C248.896 27.5974 247.407 19.5762 251.435 13.71C255.464 7.84391 263.485 6.35433 269.351 10.383C275.218 14.4116 276.707 22.4329 272.679 28.299Z" fill="#A7517A"/>
<path d="M124.017 121.613C124.036 121.573 124.056 121.534 124.076 121.494L124.083 121.48C124.172 121.292 125.136 119.309 126.449 117.868C127.064 117.193 127.776 116.609 128.445 115.989C129.443 115.063 130.561 114.158 131.781 113.304C138.215 108.802 165.861 103.853 150.911 114.599C146.366 117.867 140.724 129.522 135.827 141.385C135.045 143.276 134.675 145.31 134.681 147.356C134.683 147.977 134.683 148.609 134.682 149.252C134.669 154.289 137.13 159.016 141.282 161.867L162.963 176.757C167.407 179.809 173.2 180.449 177.789 177.62C181.195 175.521 184.389 173.099 187.056 170.428C188.704 168.778 189.94 169.214 188.987 171.343C185.246 179.703 174.173 197.32 166.842 206.716L166.839 206.723C166.836 206.734 166.824 206.74 166.813 206.735C166.668 206.669 166.52 206.61 166.369 206.556C159.216 204.016 148.381 216.135 142.169 233.626C140.249 239.033 138.995 244.32 138.391 249.12C137.023 259.977 135.241 278.708 124.809 282.011C108.532 287.166 88.2066 284.053 70.8202 272.112C48.3766 256.699 37.9023 231.433 43.6732 210.778C43.9328 209.493 44.4221 208.062 45.1281 206.506C46.0941 204.119 47.2971 201.813 48.7444 199.613C49.2818 198.796 50.0999 198.186 50.6791 197.398C52.597 194.789 56.0209 189.003 57.4675 189.133C58.914 189.262 57.9234 189.268 59.6463 189.269C61.3691 189.27 80.0211 188.852 93.467 176.057C101.511 168.402 107.125 160.02 109.218 153.342C110.754 148.44 111.637 142.859 114.417 138.539C119.376 130.832 123.481 122.687 124.017 121.613Z" fill="#A7517A"/>
<path d="M75.6698 214.628C68.2344 224.93 56.4178 229.103 49.2769 223.948C42.1359 218.794 42.3746 206.265 49.8101 195.963C57.2455 185.662 69.0621 181.489 76.203 186.643C83.344 191.797 83.1053 204.327 75.6698 214.628Z" fill="#A7517A"/>
</svg>
