<svg width="300" height="300" viewBox="0 0 300 300" fill="none" xmlns="http://www.w3.org/2000/svg">
<path d="M0.595986 64.5408C0.255071 59.5292 3.70118 55.0401 8.62345 54.0381C72.2461 41.0869 113.8 30.8019 140.809 52.9461C142.915 54.6731 144 57.3197 144 60.0436V241.138C144 248.954 135.28 253.9 127.855 251.459C105.642 244.157 77.0448 246.388 25.0856 256.713C19.1392 257.895 13.4574 253.611 13.046 247.562L0.595986 64.5408Z" fill="#A7517A"/>
<path d="M299.399 64.5564C299.743 59.5381 296.289 55.0432 291.359 54.0466C227.273 41.0919 185.419 30.7978 158.216 52.9438C156.095 54.671 155 57.3282 155 60.064V241.202C155 249.004 163.689 253.948 171.1 251.51C193.503 244.142 222.333 246.366 274.836 256.732C280.776 257.905 286.448 253.625 286.862 247.584L299.399 64.5564Z" fill="#A7517A"/>
</svg>
