<svg width="300" height="300" viewBox="0 0 300 300" fill="none" xmlns="http://www.w3.org/2000/svg">
<g clip-path="url(#clip0_678_1229)">
<path fill-rule="evenodd" clip-rule="evenodd" d="M300 150C300 232.843 229.217 300 141.902 300C80.8907 300 27.9512 267.21 1.59194 219.192C-0.764256 214.899 2.71733 209.871 7.6138 209.871C60.7393 209.871 103.806 178.166 103.806 139.056C103.806 121.362 94.9912 105.183 80.418 92.7708C55.4788 71.5291 37.2771 33.2306 66.379 18.1889C88.8192 6.5904 114.549 0 141.902 0C229.217 0 300 67.1573 300 150ZM118 231.5C118 220.73 104.793 212 88.5001 212C72.2077 212 59.0001 220.73 59.0001 231.5C59.0001 242.27 72.2077 251 88.5001 251C104.793 251 118 242.27 118 231.5ZM265.713 96C265.713 107.046 256.759 116 245.713 116C234.667 116 225.713 107.046 225.713 96C225.713 84.9543 234.667 76 245.713 76C256.759 76 265.713 84.9543 265.713 96ZM260.952 190.644C271.997 190.644 280.952 181.689 280.952 170.644C280.952 159.598 271.997 150.644 260.952 150.644C249.906 150.644 240.952 159.598 240.952 170.644C240.952 181.689 249.906 190.644 260.952 190.644ZM242.856 240.172C242.856 251.217 233.901 260.172 222.856 260.172C211.81 260.172 202.856 251.217 202.856 240.172C202.856 229.126 211.81 220.172 222.856 220.172C233.901 220.172 242.856 229.126 242.856 240.172ZM184.76 60.601C195.805 60.601 204.76 51.6466 204.76 40.601C204.76 29.5553 195.805 20.601 184.76 20.601C173.714 20.601 164.76 29.5553 164.76 40.601C164.76 51.6466 173.714 60.601 184.76 60.601Z" fill="#A7517A"/>
</g>
<defs>
<clipPath id="clip0_678_1229">
<rect width="300" height="300" fill="white"/>
</clipPath>
</defs>
</svg>
