<svg width="300" height="300" viewBox="0 0 300 300" fill="none" xmlns="http://www.w3.org/2000/svg">
<path d="M82.5116 44.126L52.9163 70.4633L209.241 246.126L238.836 219.789L82.5116 44.126Z" fill="#A7517A"/>
<path d="M39.8219 0L15 22.0894L49.8332 61.2316L74.6551 39.1422L39.8219 0Z" fill="#A7517A"/>
<path d="M242.874 228.171L218.052 250.26L241.841 276.991L266.663 254.902L242.874 228.171Z" fill="#A7517A"/>
<path d="M243.965 279.378C250.768 287.023 261.84 288.276 268.695 282.176C275.549 276.076 275.59 264.934 268.787 257.289C261.983 249.643 250.911 248.39 244.057 254.49C237.202 260.59 237.161 271.733 243.965 279.378Z" fill="#A7517A"/>
<path d="M98.1108 40.5085L93.3373 44.7565L195.288 159.319L200.062 155.071L98.1108 40.5085Z" fill="#A7517A"/>
<path d="M279.525 290.501C282.106 293.401 283.129 296.703 281.811 297.876C280.493 299.049 277.332 297.649 274.751 294.749C272.171 291.849 271.147 288.547 272.465 287.374C273.784 286.201 276.944 287.601 279.525 290.501Z" fill="#A7517A"/>
</svg>
