<svg width="300" height="300" viewBox="0 0 300 300" fill="none" xmlns="http://www.w3.org/2000/svg">
<path d="M145.245 14.6353C146.741 10.0288 153.258 10.0288 154.755 14.6353L182.555 100.193C183.224 102.253 185.144 103.648 187.31 103.648H277.27C282.114 103.648 284.128 109.846 280.209 112.693L207.43 165.57C205.677 166.843 204.944 169.1 205.613 171.16L233.412 256.717C234.909 261.324 229.637 265.155 225.718 262.308L152.939 209.43C151.186 208.157 148.814 208.157 147.061 209.43L74.2817 262.308C70.3631 265.155 65.0907 261.324 66.5875 256.717L94.3867 171.16C95.0561 169.1 94.3228 166.843 92.5704 165.57L19.791 112.693C15.8724 109.846 17.8863 103.648 22.7299 103.648H112.69C114.856 103.648 116.776 102.253 117.445 100.193L145.245 14.6353Z" fill="#A7517A"/>
</svg>
