<svg width="300" height="300" viewBox="0 0 300 300" fill="none" xmlns="http://www.w3.org/2000/svg">
<path d="M215 149.5C215 185.675 185.675 215 149.5 215C113.325 215 84 185.675 84 149.5C84 113.325 113.325 84 149.5 84C185.675 84 215 113.325 215 149.5Z" fill="#A7517A"/>
<path d="M163 63C163 68.5229 158.523 73 153 73H147C141.477 73 137 68.5229 137 63V42.5733L138.957 9.4109C139.269 4.12606 143.646 0 148.94 0H150.763C156.057 0 160.434 4.12606 160.746 9.4109L163 47.6102V63Z" fill="#A7517A"/>
<path d="M94.9325 76.5477C98.8377 80.453 98.8377 86.7846 94.9325 90.6899L90.6899 94.9325C86.7846 98.8377 80.453 98.8378 76.5477 94.9325L62.104 80.4887L40.0383 55.6555C36.5219 51.698 36.6992 45.6856 40.4426 41.9422L41.732 40.6528C45.4755 36.9093 51.4878 36.7321 55.4453 40.2485L84.0501 65.6653L94.9325 76.5477Z" fill="#A7517A"/>
<path d="M222.456 94.9325C218.551 98.8377 212.219 98.8377 208.314 94.9325L204.071 90.6899C200.166 86.7846 200.166 80.453 204.071 76.5477L218.515 62.1037L243.348 40.0383C247.306 36.5219 253.318 36.6991 257.061 40.4426L258.351 41.732C262.094 45.4754 262.271 51.4878 258.755 55.4453L233.338 84.0504L222.456 94.9325Z" fill="#A7517A"/>
<path d="M76.5477 204.071C80.453 200.166 86.7846 200.166 90.6899 204.071L94.9325 208.314C98.8377 212.219 98.8377 218.551 94.9325 222.456L80.4885 236.9L55.6555 258.965C51.698 262.482 45.6856 262.304 41.9422 258.561L40.6528 257.272C36.9093 253.528 36.7321 247.516 40.2485 243.558L65.6656 214.953L76.5477 204.071Z" fill="#A7517A"/>
<path d="M204.071 222.456C200.166 218.551 200.166 212.219 204.071 208.314L208.314 204.071C212.219 200.166 218.551 200.166 222.456 204.071L236.9 218.515L258.965 243.348C262.482 247.306 262.304 253.318 258.561 257.061L257.272 258.351C253.528 262.094 247.516 262.271 243.558 258.755L214.953 233.338L204.071 222.456Z" fill="#A7517A"/>
<path d="M137 237C137 231.477 141.477 227 147 227H153C158.523 227 163 231.477 163 237V257.427L161.043 290.589C160.731 295.874 156.354 300 151.06 300H149.237C143.943 300 139.566 295.874 139.254 290.589L137 252.39V237Z" fill="#A7517A"/>
<path d="M237 163C231.477 163 227 158.523 227 153V147C227 141.477 231.477 137 237 137H257.427L290.589 138.957C295.874 139.269 300 143.646 300 148.94V150.763C300 156.057 295.874 160.434 290.589 160.746L252.39 163H237Z" fill="#A7517A"/>
<path d="M64 137C69.5229 137 74 141.477 74 147V153C74 158.523 69.5229 163 64 163H43.5733L10.4109 161.043C5.12606 160.731 1 156.354 1 151.06V149.237C1 143.943 5.12606 139.566 10.4109 139.254L48.6102 137H64Z" fill="#A7517A"/>
</svg>
