<svg width="300" height="300" viewBox="0 0 300 300" fill="none" xmlns="http://www.w3.org/2000/svg">
<path d="M0 46C0 40.4772 4.47715 36 10 36H290C295.523 36 300 40.4772 300 46V195C300 200.523 295.523 205 290 205H10C4.47716 205 0 200.523 0 195V46Z" fill="#A7517A"/>
<path d="M135 221C135 215.477 139.477 211 145 211H155C160.523 211 165 215.477 165 221V236C165 241.523 160.523 246 155 246H145C139.477 246 135 241.523 135 236V221Z" fill="#A7517A"/>
<path d="M119 257C119 254.239 121.239 252 124 252H176C178.761 252 181 254.239 181 257V259C181 261.761 178.761 264 176 264H124C121.239 264 119 261.761 119 259V257Z" fill="#A7517A"/>
</svg>
