<svg width="300" height="300" viewBox="0 0 300 300" fill="none" xmlns="http://www.w3.org/2000/svg">
<path d="M135 167C135 161.477 139.477 157 145 157H155C160.523 157 165 161.477 165 167V290C165 295.523 160.523 300 155 300H145C139.477 300 135 295.523 135 290V167Z" fill="#A7517A"/>
<path d="M85 259C79.4772 259 75 254.523 75 249V239C75 233.477 79.4772 229 85 229H215C220.523 229 225 233.477 225 239V249C225 254.523 220.523 259 215 259H85Z" fill="#A7517A"/>
<path fill-rule="evenodd" clip-rule="evenodd" d="M150 200C205.228 200 250 155.228 250 100C250 44.7715 205.228 0 150 0C94.7715 0 50 44.7715 50 100C50 155.228 94.7715 200 150 200ZM150.25 156.5C181.316 156.5 206.5 131.316 206.5 100.25C206.5 69.184 181.316 44 150.25 44C119.184 44 94 69.184 94 100.25C94 131.316 119.184 156.5 150.25 156.5Z" fill="#A7517A"/>
</svg>
